<svg xmlns="http://www.w3.org/2000/svg" version="1.1" xmlns:xlink="http://www.w3.org/1999/xlink" xmlns:svgjs="http://svgjs.dev/svgjs" width="2000" height="1247" viewBox="0 0 2000 1247"><g transform="matrix(1,0,0,1,-1.2121212121212466,0.5654412955465205)"><svg viewBox="0 0 396 247" data-background-color="#010536" preserveAspectRatio="xMidYMid meet" height="1247" width="2000" xmlns="http://www.w3.org/2000/svg" xmlns:xlink="http://www.w3.org/1999/xlink"><g id="tight-bounds" transform="matrix(1,0,0,1,0.2400000000000091,-0.09999999999999432)"><svg viewBox="0 0 395.52 247.2" height="247.2" width="395.52"><g><svg></svg></g><g><svg viewBox="0 0 395.52 247.2" height="247.2" width="395.52"><mask id="75f67c79-086d-4899-a46a-1983629a74bf"><rect width="395.52" height="247.2" fill="white"></rect><g transform="matrix(1,0,0,1,0,53.18238122589645)" id="clone"><svg viewBox="0 0 395.52 140.8352375482071" height="140.8352375482071" width="395.52"><g><svg viewBox="0 0 395.52 140.8352375482071" height="140.8352375482071" width="395.52"><g><svg viewBox="0 0 395.52 140.8352375482071" height="140.8352375482071" width="395.52"><g><svg viewBox="0 0 395.52 140.8352375482071" height="140.8352375482071" width="395.52"><g id="SvgjsG1050"><svg viewBox="0 0 395.52 140.8352375482071" height="140.8352375482071" width="395.52" id="SvgjsSvg1049"><g><svg viewBox="0 0 395.52 140.8352375482071" height="140.8352375482071" width="395.52"><g transform="matrix(1,0,0,1,0,0)"><svg width="395.52" viewBox="-0.3599998950958252 -39.81999969482422 120 43.380001068115234" height="140.8352375482071" data-palette-color="#fbfbf8"><path d="M3.22-36.82L34.33-36.82 34.91-28.98 32.71-28.98 31.47-33.86 21.04-33.86 21.04-2.64 26.42-2.08 26.42 0 11.16 0 11.16-2.08 16.48-2.64 16.48-33.86 6.1-33.86 4.79-28.98 2.64-28.98 3.22-36.82ZM39.99-11.87L39.99-11.87Q39.99-14.67 40.95-17.09 41.92-19.51 43.58-21.19L43.58-21.19Q46.99-24.73 52-24.73L52-24.73Q57.81-24.73 61.08-21.29L61.08-21.29Q64.18-17.99 64.18-12.67L64.18-12.67Q64.18-6.74 60.67-3.03L60.67-3.03Q57.25 0.56 52.22 0.56L52.22 0.56Q46.48 0.56 43.14-2.98L43.14-2.98Q39.99-6.3 39.99-11.87ZM46.24-19.15Q45.26-17.9 44.76-16.21 44.26-14.53 44.26-12.56 44.26-10.6 44.71-8.73 45.16-6.86 46.12-5.42L46.12-5.42Q48.22-2.29 52.17-2.29L52.17-2.29Q55.88-2.29 57.93-4.74L57.93-4.74Q59.96-7.13 59.96-11.21L59.96-11.21Q59.96-18.43 55.83-20.92L55.83-20.92Q54.29-21.85 52.19-21.85 50.1-21.85 48.65-21.13 47.21-20.41 46.24-19.15ZM69.14-11.87L69.14-11.87Q69.14-14.67 70.1-17.09 71.06-19.51 72.72-21.19L72.72-21.19Q76.14-24.73 81.15-24.73L81.15-24.73Q86.96-24.73 90.23-21.29L90.23-21.29Q93.33-17.99 93.33-12.67L93.33-12.67Q93.33-6.74 89.81-3.03L89.81-3.03Q86.4 0.56 81.37 0.56L81.37 0.56Q75.63 0.56 72.29-2.98L72.29-2.98Q69.14-6.3 69.14-11.87ZM75.39-19.15Q74.41-17.9 73.91-16.21 73.41-14.53 73.41-12.56 73.41-10.6 73.86-8.73 74.31-6.86 75.26-5.42L75.26-5.42Q77.36-2.29 81.32-2.29L81.32-2.29Q85.03-2.29 87.08-4.74L87.08-4.74Q89.11-7.13 89.11-11.21L89.11-11.21Q89.11-18.43 84.98-20.92L84.98-20.92Q83.44-21.85 81.34-21.85 79.24-21.85 77.8-21.13 76.36-20.41 75.39-19.15ZM99.97-2.59L99.97-20.36 96.84-20.92 96.84-22.95 103.92-24.73 103.92-18.51Q109.54-24.73 112.37-24.73L112.37-24.73Q114.69-24.73 116.64-22.88L116.64-22.88 115.37-18.92 114.23-18.92Q114.23-20.12 112.39-20.7L112.39-20.7Q111.88-20.85 111.37-20.85L111.37-20.85Q108.78-20.85 103.92-15.65L103.92-15.65 103.92-2.59 108.76-2.03 108.76 0 96.84 0 96.84-2.03 99.97-2.59Z" opacity="1" transform="matrix(1,0,0,1,0,0)" fill="black" class="wordmark-text-0" id="SvgjsPath1048" stroke-width="5" stroke="black" stroke-linejoin="round"></path></svg></g></svg></g></svg></g></svg></g><g></g></svg></g></svg></g></svg></g></mask><g mask="url(#75f67c79-086d-4899-a46a-1983629a74bf)"><g><path xmlns="http://www.w3.org/2000/svg" d="M93.318-0.012h208.884l3.895 52.641h-14.772l-8.326-32.766h-70.031v209.623l36.124 3.76v13.966h-102.462v-13.966l35.72-3.76v-209.623h-69.695l-8.796 32.766h-14.436z" fill="#fbfbf8" fill-rule="nonzero" stroke="none" stroke-width="1" stroke-linecap="butt" stroke-linejoin="miter" stroke-miterlimit="10" stroke-dasharray="" stroke-dashoffset="0" font-family="none" font-weight="none" font-size="none" text-anchor="none" style="mix-blend-mode: normal" data-fill-palette-color="tertiary"></path></g></g><g transform="matrix(1,0,0,1,0,53.18238122589645)"><svg viewBox="0 0 395.52 140.8352375482071" height="140.8352375482071" width="395.52"><g><svg viewBox="0 0 395.52 140.8352375482071" height="140.8352375482071" width="395.52"><g><svg viewBox="0 0 395.52 140.8352375482071" height="140.8352375482071" width="395.52"><g><svg viewBox="0 0 395.52 140.8352375482071" height="140.8352375482071" width="395.52"><g id="textblocktransform"><svg viewBox="0 0 395.52 140.8352375482071" height="140.8352375482071" width="395.52" id="textblock"><g><svg viewBox="0 0 395.52 140.8352375482071" height="140.8352375482071" width="395.52"><g transform="matrix(1,0,0,1,0,0)"><svg width="395.52" viewBox="-0.3599998950958252 -39.81999969482422 120 43.380001068115234" height="140.8352375482071" data-palette-color="#fbfbf8"><path d="M3.22-36.82L34.33-36.82 34.91-28.98 32.71-28.98 31.47-33.86 21.04-33.86 21.04-2.64 26.42-2.08 26.42 0 11.16 0 11.16-2.08 16.48-2.64 16.48-33.86 6.1-33.86 4.79-28.98 2.64-28.98 3.22-36.82ZM39.99-11.87L39.99-11.87Q39.99-14.67 40.95-17.09 41.92-19.51 43.58-21.19L43.58-21.19Q46.99-24.73 52-24.73L52-24.73Q57.81-24.73 61.08-21.29L61.08-21.29Q64.18-17.99 64.18-12.67L64.18-12.67Q64.18-6.74 60.67-3.03L60.67-3.03Q57.25 0.56 52.22 0.56L52.22 0.56Q46.48 0.56 43.14-2.98L43.14-2.98Q39.99-6.3 39.99-11.87ZM46.24-19.15Q45.26-17.9 44.76-16.21 44.26-14.53 44.26-12.56 44.26-10.6 44.71-8.73 45.16-6.86 46.12-5.42L46.12-5.42Q48.22-2.29 52.17-2.29L52.17-2.29Q55.88-2.29 57.93-4.74L57.93-4.74Q59.96-7.13 59.96-11.21L59.96-11.21Q59.96-18.43 55.83-20.92L55.83-20.92Q54.29-21.85 52.19-21.85 50.1-21.85 48.65-21.13 47.21-20.41 46.24-19.15ZM69.14-11.87L69.14-11.87Q69.14-14.67 70.1-17.09 71.06-19.51 72.72-21.19L72.72-21.19Q76.14-24.73 81.15-24.73L81.15-24.73Q86.96-24.73 90.23-21.29L90.23-21.29Q93.33-17.99 93.33-12.67L93.33-12.67Q93.33-6.74 89.81-3.03L89.81-3.03Q86.4 0.56 81.37 0.56L81.37 0.56Q75.63 0.56 72.29-2.98L72.29-2.98Q69.14-6.3 69.14-11.87ZM75.39-19.15Q74.41-17.9 73.91-16.21 73.41-14.53 73.41-12.56 73.41-10.6 73.86-8.73 74.31-6.86 75.26-5.42L75.26-5.42Q77.36-2.29 81.32-2.29L81.32-2.29Q85.03-2.29 87.08-4.74L87.08-4.74Q89.11-7.13 89.11-11.21L89.11-11.21Q89.11-18.43 84.98-20.92L84.98-20.92Q83.44-21.85 81.34-21.85 79.24-21.85 77.8-21.13 76.36-20.41 75.39-19.15ZM99.97-2.59L99.97-20.36 96.84-20.92 96.84-22.95 103.92-24.73 103.92-18.51Q109.54-24.73 112.37-24.73L112.37-24.73Q114.69-24.73 116.64-22.88L116.64-22.88 115.37-18.92 114.23-18.92Q114.23-20.12 112.39-20.7L112.39-20.7Q111.88-20.85 111.37-20.85L111.37-20.85Q108.78-20.85 103.92-15.65L103.92-15.65 103.92-2.59 108.76-2.03 108.76 0 96.84 0 96.84-2.03 99.97-2.59Z" opacity="1" transform="matrix(1,0,0,1,0,0)" fill="#fbfbf8" class="wordmark-text-0" data-fill-palette-color="primary" id="text-0"></path></svg></g></svg></g></svg></g></svg></g><g></g></svg></g></svg></g></svg></g></svg></g><defs></defs></svg><rect width="395.52" height="247.2" fill="none" stroke="none" visibility="hidden"></rect></g></svg></g></svg>